<?xml version="1.0" encoding="UTF-8"?>
<!DOCTYPE svg PUBLIC "-//W3C//DTD SVG 1.1//EN" "http://www.w3.org/Graphics/SVG/1.1/DTD/svg11.dtd">
<!-- Creator: CorelDRAW X7 -->
<svg xmlns="http://www.w3.org/2000/svg" xml:space="preserve" width="5.14036in" height="5.13738in" version="1.1" style="shape-rendering:geometricPrecision; text-rendering:geometricPrecision; image-rendering:optimizeQuality; fill-rule:evenodd; clip-rule:evenodd"
viewBox="0 0 5140 5137"
 xmlns:xlink="http://www.w3.org/1999/xlink">
 <defs>
  <style type="text/css">
   <![CDATA[
    .str0 {stroke:black;stroke-width:111.11}
    .fil1 {fill:#ED3237}
    .fil0 {fill:#201E1E}
   ]]>
  </style>
 </defs>
 <g id="Layer_x0020_1">
  <metadata id="CorelCorpID_0Corel-Layer"/>
  <g id="_1582560358512">
   <path class="fil0" d="M3179 3311c-27,-5 -771,-1 -833,-1 -35,0 -91,-11 -116,-21 -58,-24 -122,-71 -147,-130 -28,-65 -23,-179 -14,-252l3 -65c1,-71 59,-500 67,-554 5,-40 11,-83 16,-124 22,-155 -36,-176 102,-175l966 0c116,0 463,10 550,0 37,-4 97,0 137,0 16,0 19,-3 32,-3 11,-1 23,0 33,0 22,-1 40,-9 60,-9l12 -116c22,-195 44,-377 63,-573l20 -232 -3129 -1 -10 115c-4,35 -9,77 -11,114l-68 687c19,0 259,-4 265,2 4,4 -14,151 -15,159 -8,102 -26,228 -33,325l-67 651c-4,28 -4,53 -8,81 -11,75 -6,66 -8,127 -2,50 -5,16 0,83 4,53 19,142 35,189 15,43 30,89 49,130 44,94 129,259 214,323 62,46 99,69 171,100 63,28 65,28 130,49 80,27 219,48 308,51 117,3 240,0 358,0 215,0 459,-4 674,0 24,0 22,2 26,-19l168 -911z"/>
   <path class="fil0 str0" d="M4960 1058l0 2255 0 1644 -4779 0 0 -4779 4779 0 0 880zm-4904 4024l5029 0 0 -5026 -5029 0 0 5026z"/>
   <path class="fil1" d="M3152 4244c80,0 150,-3 230,-3 44,0 639,2 645,-2 6,-3 7,-41 8,-52l10 -107c9,-76 16,-185 25,-269l30 -323c2,-19 2,-35 4,-55l11 -108 -784 0c-15,64 -31,161 -45,229l-112 575c-7,39 -14,78 -22,115z"/>
  </g>
 </g>
</svg>
